<?xml version="1.0" standalone="no"?>
<!DOCTYPE svg PUBLIC "-//W3C//DTD SVG 20010904//EN"
 "http://www.w3.org/TR/2001/REC-SVG-20010904/DTD/svg10.dtd">
<svg version="1.0" xmlns="http://www.w3.org/2000/svg"
 width="256.000000pt" height="256.000000pt" viewBox="0 0 256.000000 256.000000"
 preserveAspectRatio="xMidYMid meet">
<metadata>
Created by potrace 1.14, written by Peter Selinger 2001-2017
</metadata>
<g transform="translate(0.000000,256.000000) scale(0.100000,-0.100000)"
fill="#000000" stroke="none">
<path d="M480 1600 l0 -320 240 0 240 0 0 -160 0 -160 -240 0 -240 0 0 -80 0
-80 320 0 320 0 0 320 0 320 -240 0 -240 0 0 160 0 160 240 0 240 0 0 80 0 80
-320 0 -320 0 0 -320z"/>
<path d="M1440 1360 l0 -560 320 0 320 0 0 240 0 240 -80 0 -80 0 0 80 0 80
80 0 80 0 0 240 0 240 -320 0 -320 0 0 -560z m480 240 l0 -160 -160 0 -160 0
0 160 0 160 160 0 160 0 0 -160z m0 -480 l0 -160 -160 0 -160 0 0 160 0 160
160 0 160 0 0 -160z"/>
</g>
</svg>
